<svg width="32" height="32" viewBox="0 0 44 38" fill="none" xmlns="http://www.w3.org/2000/svg">
  <path d="M17.3587 20.2047C19.5883 25.04 25.5549 34.0471 27.8503 37.4542C23.0643 37.4612 16.9754 37.3506 13.5158 36.8518C8.81446 36.1836 4.9198 32.4189 3.86617 27.4918C3.17002 24.2259 3.86381 20.9906 5.54068 18.3953C7.22226 15.8 9.89396 13.8471 13.1513 13.1483C14.1978 12.9247 15.2491 12.84 16.2769 12.8777C15.9382 15.4189 16.3216 17.9436 17.3587 20.2071V20.2047Z" fill="#0088FF"/>
  <path d="M39.0599 6.08472C36.6987 3.72236 33.6083 2.54354 30.5227 2.54354C27.4371 2.54354 24.3397 3.72236 21.9784 6.08472C20.0405 8.02354 18.8552 10.4777 18.4883 13.0047C18.4812 13.0612 18.4718 13.1153 18.4648 13.1718C18.2014 15.24 18.4812 17.3553 19.3679 19.273C22.002 24.9788 30.2852 37.1035 30.5086 37.4447C30.5157 37.4518 30.5227 37.4518 30.5227 37.4518V37.4447C30.5227 37.4447 30.5392 37.4212 30.5556 37.4047C30.5627 37.393 30.565 37.3835 30.5768 37.3694C30.5886 37.3483 30.6097 37.3177 30.6332 37.2824C30.6474 37.2659 30.6568 37.2494 30.6709 37.2306C30.6991 37.1835 30.7297 37.1388 30.7626 37.0894C31.1765 36.4847 32.0632 35.1718 33.1827 33.4777C35.9037 29.3388 39.9677 22.9577 41.6705 19.273C43.6625 14.9647 42.623 9.64942 39.0599 6.08472ZM30.5204 20.5224C27.3054 20.5224 24.7019 17.9153 24.7019 14.7012C24.7019 11.4871 27.3054 8.88001 30.5204 8.88001C33.7353 8.88001 36.3388 11.4871 36.3388 14.7012C36.3388 17.9153 33.733 20.5224 30.5204 20.5224Z" fill="#0088FF"/>
</svg>