<svg width="70" height="71" viewBox="0 0 70 71" fill="none" xmlns="http://www.w3.org/2000/svg">
<g clip-path="url(#clip0_341_240)">
<path d="M29.1604 59.2233C29.1604 58.4498 29.4677 57.7079 30.0147 57.1609C30.5617 56.6139 31.3035 56.3066 32.0771 56.3066H37.9104C38.6839 56.3066 39.4258 56.6139 39.9728 57.1609C40.5198 57.7079 40.8271 58.4498 40.8271 59.2233V62.14C40.8271 62.9135 40.5198 63.6554 39.9728 64.2024C39.4258 64.7494 38.6839 65.0566 37.9104 65.0566H32.0771C31.3035 65.0566 30.5617 64.7494 30.0147 64.2024C29.4677 63.6554 29.1604 62.9135 29.1604 62.14V59.2233Z" stroke="#FF3897" stroke-width="6.41772" stroke-linecap="round" stroke-linejoin="round"/>
<path d="M34.9937 47.557C44.6595 47.557 52.4937 33.8895 52.4937 24.2236C52.4937 19.5823 50.6499 15.1312 47.368 11.8493C44.0861 8.56738 39.6349 6.72363 34.9937 6.72363C30.3524 6.72363 25.9012 8.56738 22.6193 11.8493C19.3374 15.1312 17.4937 19.5823 17.4937 24.2236C17.4937 33.8895 25.3278 47.557 34.9937 47.557Z" stroke="#FF3897" stroke-width="6.41772" stroke-linecap="round" stroke-linejoin="round"/>
<path d="M29.1604 27.1403C29.1604 32.5551 29.775 37.7482 30.8689 41.5771C31.9629 45.4059 33.4466 47.557 34.9937 47.557C36.5408 47.557 38.0246 45.4059 39.1185 41.5771C40.2125 37.7482 40.8271 32.5551 40.8271 27.1403C40.8271 21.7255 40.2125 16.5324 39.1185 12.7035C38.0246 8.87467 36.5408 6.72363 34.9937 6.72363C33.4466 6.72363 31.9629 8.87467 30.8689 12.7035C29.775 16.5324 29.1604 21.7255 29.1604 27.1403Z" stroke="#FF3897" stroke-width="6.41772" stroke-linecap="round" stroke-linejoin="round"/>
</g>
<defs>
<clipPath id="clip0_341_240">
<rect width="70" height="70" fill="white" transform="translate(-0.00634766 0.890137)"/>
</clipPath>
</defs>
</svg>
