<svg width="60" height="59" viewBox="0 0 60 59" fill="none" xmlns="http://www.w3.org/2000/svg">
<path d="M44.5832 4.13165C49.0172 6.69158 52.6991 10.3735 55.259 14.8075C57.819 19.2414 59.1666 24.2711 59.1666 29.3909C59.1665 34.5108 57.8188 39.5404 55.2589 43.9743C52.6989 48.4082 49.0169 52.0901 44.5829 54.65C40.149 57.2099 35.1193 58.5575 29.9995 58.5574C24.8796 58.5573 19.85 57.2095 15.4161 54.6495C10.9822 52.0895 7.30035 48.4075 4.74052 43.9735C2.18069 39.5395 0.833122 34.5098 0.833252 29.39L0.847836 28.445C1.01118 23.4079 2.47693 18.499 5.1022 14.197C7.72747 9.89506 11.4227 6.34672 15.8275 3.89798C20.2324 1.44923 25.1966 0.183643 30.2362 0.224596C35.2758 0.265549 40.2188 1.61165 44.5832 4.13165ZM29.9999 46.89C29.2264 46.89 28.4845 47.1973 27.9375 47.7443C27.3905 48.2912 27.0833 49.0331 27.0833 49.8067C27.0833 50.5802 27.3905 51.3221 27.9375 51.8691C28.4845 52.416 29.2264 52.7233 29.9999 52.7233C30.7735 52.7233 31.5153 52.416 32.0623 51.8691C32.6093 51.3221 32.9166 50.5802 32.9166 49.8067C32.9166 49.0331 32.6093 48.2912 32.0623 47.7443C31.5153 47.1973 30.7735 46.89 29.9999 46.89ZM40.7449 14.9554L23.2449 20.7887C22.8149 20.9319 22.4241 21.1733 22.1037 21.4937C21.7832 21.8142 21.5418 22.205 21.3987 22.635L15.5449 40.2108L15.4778 40.4617L15.4283 40.7912L15.4166 40.9896V41.1179L15.4428 41.4417L15.4778 41.6458L15.5945 42.0658L15.7258 42.3575L15.8833 42.6346L16.0699 42.8971L16.2712 43.1158L16.5162 43.3317L16.802 43.5358L17.0937 43.6933L17.3212 43.7896L17.6274 43.8858L17.9453 43.9442L18.0708 43.9587L18.2691 43.9704H18.3974L18.7212 43.9442L18.9253 43.9092L18.9837 43.8917L19.0391 43.8858L19.2549 43.8217L36.7549 37.9883C37.1849 37.8452 37.5757 37.6038 37.8962 37.2833C38.2166 36.9628 38.458 36.5721 38.6012 36.1421L44.4345 18.6421C44.6059 18.1282 44.6308 17.5767 44.5063 17.0494C44.3819 16.5222 44.1131 16.04 43.73 15.657C43.347 15.2739 42.8648 15.0051 42.3375 14.8807C41.8103 14.7562 41.2588 14.784 40.7449 14.9554ZM37.0553 22.3317L33.5262 32.9162L22.9416 36.4454L26.4708 25.8608L37.0553 22.3317ZM9.58325 26.4733C8.8097 26.4733 8.06784 26.7806 7.52086 27.3276C6.97388 27.8746 6.66658 28.6164 6.66658 29.39C6.66658 30.1635 6.97388 30.9054 7.52086 31.4524C8.06784 31.9994 8.8097 32.3067 9.58325 32.3067C10.3568 32.3067 11.0987 31.9994 11.6456 31.4524C12.1926 30.9054 12.4999 30.1635 12.4999 29.39C12.4999 28.6164 12.1926 27.8746 11.6456 27.3276C11.0987 26.7806 10.3568 26.4733 9.58325 26.4733ZM50.4166 26.4733C49.643 26.4733 48.9012 26.7806 48.3542 27.3276C47.8072 27.8746 47.4999 28.6164 47.4999 29.39C47.4999 30.1635 47.8072 30.9054 48.3542 31.4524C48.9012 31.9994 49.643 32.3067 50.4166 32.3067C51.1901 32.3067 51.932 31.9994 52.479 31.4524C53.026 30.9054 53.3332 30.1635 53.3332 29.39C53.3332 28.6164 53.026 27.8746 52.479 27.3276C51.932 26.7806 51.1901 26.4733 50.4166 26.4733ZM29.9999 6.05665C29.2264 6.05665 28.4845 6.36394 27.9375 6.91093C27.3905 7.45791 27.0833 8.19977 27.0833 8.97332C27.0833 9.74687 27.3905 10.4887 27.9375 11.0357C28.4845 11.5827 29.2264 11.89 29.9999 11.89C30.7735 11.89 31.5153 11.5827 32.0623 11.0357C32.6093 10.4887 32.9166 9.74687 32.9166 8.97332C32.9166 8.19977 32.6093 7.45791 32.0623 6.91093C31.5153 6.36394 30.7735 6.05665 29.9999 6.05665Z" fill="#FF3897"/>
</svg>
