<svg width="22" height="23" viewBox="0 0 22 23" fill="none" xmlns="http://www.w3.org/2000/svg">
<path d="M14 17.3213H9M17 13.3213H9M3 21.3213H19C19.5304 21.3213 20.0391 21.1106 20.4142 20.7355C20.7893 20.3604 21 19.8517 21 19.3213V3.32129C21 2.79086 20.7893 2.28215 20.4142 1.90708C20.0391 1.532 19.5304 1.32129 19 1.32129H7C6.46957 1.32129 5.96086 1.532 5.58579 1.90708C5.21071 2.28215 5 2.79086 5 3.32129V19.3213C5 19.8517 4.78929 20.3604 4.41421 20.7355C4.03914 21.1106 3.53043 21.3213 3 21.3213ZM3 21.3213C2.46957 21.3213 1.96086 21.1106 1.58579 20.7355C1.21071 20.3604 1 19.8517 1 19.3213V10.3213C1 9.79086 1.21071 9.28215 1.58579 8.90708C1.96086 8.532 2.46957 8.32129 3 8.32129H5" stroke="#FF3897" stroke-width="1.66667" stroke-linecap="round" stroke-linejoin="round"/>
</svg>
