<svg width="112" height="51" viewBox="0 0 112 51" fill="none" xmlns="http://www.w3.org/2000/svg">
<g opacity="0.75">
<ellipse cx="4.23784" cy="4.38921" rx="4.23784" ry="4.38919" fill="#FFE759"/>
<ellipse cx="4.23784" cy="25.2757" rx="4.23784" ry="4.38919" fill="#FFE759"/>
<circle cx="4.23784" cy="46.0108" r="4.23784" fill="#FFE759"/>
<ellipse cx="24.8216" cy="4.38921" rx="4.23784" ry="4.38919" fill="#FFE759"/>
<ellipse cx="24.8216" cy="25.2757" rx="4.23784" ry="4.38919" fill="#FFE759"/>
<circle cx="24.8216" cy="46.0108" r="4.23784" fill="#FFE759"/>
<circle cx="45.5567" cy="4.38921" r="4.38919" fill="#FFE759"/>
<circle cx="45.5567" cy="25.2757" r="4.38919" fill="#FFE759"/>
<ellipse cx="45.5567" cy="46.0108" rx="4.38919" ry="4.23784" fill="#FFE759"/>
<circle cx="66.4431" cy="4.38921" r="4.38919" fill="#FFE759"/>
<circle cx="66.4431" cy="25.2757" r="4.38919" fill="#FFE759"/>
<ellipse cx="66.4431" cy="46.0108" rx="4.38919" ry="4.23784" fill="#FFE759"/>
<ellipse cx="87.1785" cy="4.38921" rx="4.23784" ry="4.38919" fill="#FFE759"/>
<ellipse cx="87.1785" cy="25.2757" rx="4.23784" ry="4.38919" fill="#FFE759"/>
<circle cx="87.1785" cy="46.0108" r="4.23784" fill="#FFE759"/>
<ellipse cx="107.762" cy="4.38921" rx="4.23784" ry="4.38919" fill="#FFE759"/>
<ellipse cx="107.762" cy="25.2757" rx="4.23784" ry="4.38919" fill="#FFE759"/>
<circle cx="107.762" cy="46.0108" r="4.23784" fill="#FFE759"/>
</g>
</svg>
