<svg width="22" height="20" viewBox="0 0 22 20" fill="none" xmlns="http://www.w3.org/2000/svg">
<path d="M18.414 11.7352C20 10.1492 21 8.82119 21 6.82119C21 5.70839 20.6624 4.62177 20.0319 3.70485C19.4013 2.78793 18.5075 2.08385 17.4684 1.68559C16.4293 1.28733 15.2938 1.21363 14.212 1.47423C13.1301 1.73483 12.1528 2.31747 11.409 3.14519M18.414 11.7352C18.2168 11.9325 17.9826 12.0889 17.7249 12.1957C17.4672 12.3025 17.191 12.3574 16.912 12.3574C16.633 12.3574 16.3568 12.3025 16.0991 12.1957C15.8414 12.0889 15.6072 11.9325 15.41 11.7352C15.6235 11.9283 15.7956 12.1628 15.9157 12.4244C16.0358 12.6861 16.1015 12.9694 16.1087 13.2573C16.116 13.5451 16.0646 13.8314 15.9578 14.0987C15.851 14.3661 15.6909 14.6089 15.4873 14.8125C15.2837 15.0161 15.0409 15.1762 14.7735 15.283C14.5062 15.3898 14.2199 15.4412 13.9321 15.4339C13.6443 15.4267 13.3609 15.361 13.0993 15.2409C12.8376 15.1208 12.6031 14.9487 12.41 14.7352C12.6074 14.9318 12.7641 15.1654 12.8712 15.4227C12.9782 15.6799 13.0335 15.9557 13.0339 16.2344C13.0342 16.513 12.9797 16.7889 12.8733 17.0465C12.767 17.304 12.6109 17.538 12.414 17.7352C12.224 17.9253 11.9976 18.0751 11.7484 18.1757C11.4991 18.2764 11.2322 18.3257 10.9635 18.3209C10.6947 18.316 10.4297 18.257 10.1843 18.1475C9.93886 18.0379 9.71804 17.88 9.535 17.6832L4 12.3212C2.5 10.8212 1 9.12119 1 6.82119C1.00022 5.70848 1.33794 4.622 1.96856 3.70523C2.59917 2.78847 3.49303 2.08454 4.53208 1.68641C5.57112 1.28828 6.7065 1.21466 7.78826 1.47529C8.87002 1.73592 9.84728 2.31853 10.591 3.14619C10.7022 3.24952 10.8484 3.30688 11.0002 3.30669C11.152 3.30651 11.2981 3.2488 11.409 3.14519M18.414 11.7352C18.7889 11.3601 18.9996 10.8515 18.9996 10.3212C18.9996 9.79086 18.7889 9.28225 18.414 8.90719L16.533 7.02519C16.3092 6.80129 16.0435 6.62368 15.751 6.5025C15.4585 6.38132 15.1451 6.31894 14.8285 6.31894C14.5119 6.31894 14.1985 6.38132 13.906 6.5025C13.6135 6.62368 13.3478 6.80129 13.124 7.02519L11.414 8.73519C11.0389 9.11013 10.5303 9.32076 10 9.32076C9.46967 9.32076 8.96106 9.11013 8.586 8.73519C8.21106 8.36013 8.00043 7.85152 8.00043 7.32119C8.00043 6.79086 8.21106 6.28225 8.586 5.90719L11.409 3.14519" stroke="#FF3897" stroke-width="1.66667" stroke-linecap="round" stroke-linejoin="round"/>
</svg>
