<svg width="15" height="19" viewBox="0 0 15 19" fill="none" xmlns="http://www.w3.org/2000/svg">
<path d="M5.83317 17.8333V12.3583M7.49984 8.66665H7.50817M7.49984 5.33331H7.50817M9.1665 12.3583V17.8333M9.99984 12.8333C9.2786 12.2924 8.40138 12 7.49984 12C6.59829 12 5.72107 12.2924 4.99984 12.8333M10.8332 8.66665H10.8415M10.8332 5.33331H10.8415M4.1665 8.66665H4.17484M4.1665 5.33331H4.17484" stroke="#969696" stroke-width="1.66667" stroke-linecap="round" stroke-linejoin="round"/>
<path d="M12.4999 1.16666H2.49992C1.57944 1.16666 0.833252 1.91285 0.833252 2.83332V16.1667C0.833252 17.0871 1.57944 17.8333 2.49992 17.8333H12.4999C13.4204 17.8333 14.1666 17.0871 14.1666 16.1667V2.83332C14.1666 1.91285 13.4204 1.16666 12.4999 1.16666Z" stroke="#969696" stroke-width="1.66667" stroke-linecap="round" stroke-linejoin="round"/>
</svg>
