<svg width="20" height="21" viewBox="0 0 20 21" fill="none" xmlns="http://www.w3.org/2000/svg">
<path d="M11.0281 0.751953C12.1531 0.754953 12.7241 0.760953 13.2171 0.774953L13.4111 0.781953C13.6351 0.789953 13.8561 0.799953 14.1231 0.811953C15.1871 0.861953 15.9131 1.02995 16.5501 1.27695C17.2101 1.53095 17.7661 1.87495 18.3221 2.42995C18.8308 2.92969 19.2243 3.53443 19.4751 4.20195C19.7221 4.83895 19.8901 5.56495 19.9401 6.62995C19.9521 6.89595 19.9621 7.11695 19.9701 7.34195L19.9761 7.53595C19.9911 8.02795 19.9971 8.59895 19.9991 9.72395L20.0001 10.47V11.78C20.0025 12.5094 19.9948 13.2388 19.9771 13.968L19.9711 14.162C19.9631 14.387 19.9531 14.608 19.9411 14.874C19.8911 15.939 19.7211 16.664 19.4751 17.302C19.2243 17.9695 18.8308 18.5742 18.3221 19.074C17.8223 19.5826 17.2176 19.9761 16.5501 20.227C15.9131 20.474 15.1871 20.642 14.1231 20.692L13.4111 20.722L13.2171 20.728C12.7241 20.742 12.1531 20.749 11.0281 20.751L10.2821 20.752H8.97308C8.24334 20.7545 7.5136 20.7469 6.78408 20.729L6.59008 20.723C6.35269 20.714 6.11535 20.7036 5.87808 20.692C4.81408 20.642 4.08808 20.474 3.45008 20.227C2.78291 19.976 2.17852 19.5825 1.67908 19.074C1.17003 18.5743 0.776189 17.9696 0.525081 17.302C0.278081 16.665 0.11008 15.939 0.0600805 14.874L0.0300805 14.162L0.0250806 13.968C0.00664665 13.2388 -0.00168758 12.5094 8.05157e-05 11.78V9.72395C-0.00268738 8.99455 0.00464673 8.26515 0.0220806 7.53595L0.0290806 7.34195C0.0370806 7.11695 0.0470805 6.89595 0.0590805 6.62995C0.109081 5.56495 0.27708 4.83995 0.52408 4.20195C0.775775 3.53415 1.1703 2.92939 1.68008 2.42995C2.17923 1.9215 2.78327 1.52803 3.45008 1.27695C4.08808 1.02995 4.81308 0.861953 5.87808 0.811953C6.14408 0.799953 6.36608 0.789953 6.59008 0.781953L6.78408 0.775953C7.51327 0.758186 8.24268 0.750518 8.97208 0.752953L11.0281 0.751953ZM10.0001 5.75195C8.674 5.75195 7.40223 6.27874 6.46455 7.21642C5.52687 8.1541 5.00008 9.42587 5.00008 10.752C5.00008 12.078 5.52687 13.3498 6.46455 14.2875C7.40223 15.2252 8.674 15.752 10.0001 15.752C11.3262 15.752 12.5979 15.2252 13.5356 14.2875C14.4733 13.3498 15.0001 12.078 15.0001 10.752C15.0001 9.42587 14.4733 8.1541 13.5356 7.21642C12.5979 6.27874 11.3262 5.75195 10.0001 5.75195ZM10.0001 7.75195C10.394 7.75189 10.7842 7.82942 11.1482 7.98012C11.5122 8.13083 11.8429 8.35175 12.1215 8.63028C12.4002 8.90881 12.6212 9.23949 12.772 9.60344C12.9229 9.96739 13.0005 10.3575 13.0006 10.7515C13.0006 11.1454 12.9231 11.5355 12.7724 11.8995C12.6217 12.2635 12.4008 12.5943 12.1223 12.8729C11.8437 13.1515 11.513 13.3726 11.1491 13.5234C10.7851 13.6742 10.395 13.7519 10.0011 13.752C9.20543 13.752 8.44237 13.4359 7.87976 12.8733C7.31715 12.3107 7.00108 11.5476 7.00108 10.752C7.00108 9.9563 7.31715 9.19324 7.87976 8.63063C8.44237 8.06802 9.20543 7.75195 10.0011 7.75195M15.2511 4.25195C14.9196 4.25195 14.6016 4.38365 14.3672 4.61807C14.1328 4.85249 14.0011 5.17043 14.0011 5.50195C14.0011 5.83347 14.1328 6.15142 14.3672 6.38584C14.6016 6.62026 14.9196 6.75195 15.2511 6.75195C15.5826 6.75195 15.9005 6.62026 16.135 6.38584C16.3694 6.15142 16.5011 5.83347 16.5011 5.50195C16.5011 5.17043 16.3694 4.85249 16.135 4.61807C15.9005 4.38365 15.5826 4.25195 15.2511 4.25195Z" fill="#0088FF"/>
</svg>
