<svg width="10" height="11" viewBox="0 0 10 11" fill="none" xmlns="http://www.w3.org/2000/svg">
<path d="M9 4.5C9 6.9965 6.2305 9.5965 5.3005 10.3995C5.21386 10.4646 5.1084 10.4999 5 10.4999C4.8916 10.4999 4.78614 10.4646 4.6995 10.3995C3.7695 9.5965 1 6.9965 1 4.5C1 3.43913 1.42143 2.42172 2.17157 1.67157C2.92172 0.921427 3.93913 0.5 5 0.5C6.06087 0.5 7.07828 0.921427 7.82843 1.67157C8.57857 2.42172 9 3.43913 9 4.5Z" stroke="#969696" stroke-linecap="round" stroke-linejoin="round"/>
<path d="M5 6C5.82843 6 6.5 5.32843 6.5 4.5C6.5 3.67157 5.82843 3 5 3C4.17157 3 3.5 3.67157 3.5 4.5C3.5 5.32843 4.17157 6 5 6Z" stroke="#969696" stroke-linecap="round" stroke-linejoin="round"/>
</svg>
