<svg width="65" height="61" viewBox="0 0 65 61" fill="none" xmlns="http://www.w3.org/2000/svg">
<g clip-path="url(#clip0_341_246)">
<path d="M26.3196 43.7876L24.375 42.8901L8.125 50.3901V17.8901L24.375 10.3901L40.625 17.8901L56.875 10.3901V29.1401" stroke="#FF3897" stroke-width="6.16667" stroke-linecap="round" stroke-linejoin="round"/>
<path d="M24.375 10.3901V42.8901" stroke="#FF3897" stroke-width="6.16667" stroke-linecap="round" stroke-linejoin="round"/>
<path d="M40.625 17.8901V27.8901" stroke="#FF3897" stroke-width="6.16667" stroke-linecap="round" stroke-linejoin="round"/>
<path d="M48.2082 52.4323L42.3257 55.2773C42.1512 55.3612 41.9548 55.3986 41.7585 55.3854C41.5622 55.3722 41.3738 55.309 41.2142 55.2026C41.0546 55.0963 40.9302 54.9511 40.8549 54.7833C40.7795 54.6155 40.7561 54.4317 40.7874 54.2523L41.9114 48.2248L37.1528 43.9573C37.0108 43.8306 36.9102 43.6695 36.8626 43.4926C36.815 43.3156 36.8222 43.1298 36.8835 42.9564C36.9448 42.7831 37.0577 42.6291 37.2092 42.5121C37.3607 42.3952 37.5449 42.3198 37.7405 42.2948L44.3164 41.4148L47.2576 35.9323C47.3456 35.769 47.4812 35.6316 47.6491 35.5356C47.817 35.4396 48.0107 35.3887 48.2082 35.3887C48.4058 35.3887 48.5994 35.4396 48.7674 35.5356C48.9353 35.6316 49.0709 35.769 49.1589 35.9323L52.1001 41.4148L58.676 42.2948C58.8711 42.3207 59.0544 42.3965 59.2053 42.5136C59.3562 42.6307 59.4685 42.7845 59.5297 42.9574C59.5908 43.1304 59.5983 43.3157 59.5513 43.4924C59.5043 43.6691 59.4047 43.8302 59.2637 43.9573L54.5051 48.2248L55.6264 54.2498C55.66 54.4295 55.6384 54.6143 55.564 54.7832C55.4896 54.9521 55.3654 55.0983 55.2055 55.2054C55.0455 55.3124 54.8563 55.3758 54.6593 55.3886C54.4622 55.4013 54.2653 55.3627 54.0907 55.2773L48.2082 52.4323Z" stroke="#FF3897" stroke-width="6.16667" stroke-linecap="round" stroke-linejoin="round"/>
</g>
<defs>
<clipPath id="clip0_341_246">
<rect width="65" height="60" fill="white" transform="translate(0 0.390137)"/>
</clipPath>
</defs>
</svg>
