<svg width="21" height="21" viewBox="0 0 21 21" fill="none" xmlns="http://www.w3.org/2000/svg">
<path d="M15.8 17.5213L14 9.32129L17.5 5.82129C19 4.32129 19.5 2.32129 19 1.32129C18 0.821289 16 1.32129 14.5 2.82129L11 6.32129L2.8 4.52129C2.3 4.42129 1.9 4.62129 1.7 5.02129L1.4 5.52129C1.2 6.02129 1.3 6.52129 1.7 6.82129L7 10.3213L5 13.3213H2L1 14.3213L4 16.3213L6 19.3213L7 18.3213V15.3213L10 13.3213L13.5 18.6213C13.8 19.0213 14.3 19.1213 14.8 18.9213L15.3 18.7213C15.7 18.4213 15.9 18.0213 15.8 17.5213Z" stroke="#FF3897" stroke-width="1.66667" stroke-linecap="round" stroke-linejoin="round"/>
</svg>
