<svg width="17" height="17" viewBox="0 0 17 17" fill="none" xmlns="http://www.w3.org/2000/svg">
<path d="M13.3333 14.5L11.8333 7.66667L14.75 4.75C16 3.5 16.4167 1.83333 16 1C15.1667 0.583333 13.5 1 12.25 2.25L9.33333 5.16667L2.5 3.66667C2.08333 3.58333 1.75 3.75 1.58333 4.08333L1.33333 4.5C1.16667 4.91667 1.25 5.33333 1.58333 5.58333L6 8.5L4.33333 11H1.83333L1 11.8333L3.5 13.5L5.16667 16L6 15.1667V12.6667L8.5 11L11.4167 15.4167C11.6667 15.75 12.0833 15.8333 12.5 15.6667L12.9167 15.5C13.25 15.25 13.4167 14.9167 13.3333 14.5Z" stroke="black" stroke-width="1.66667" stroke-linecap="round" stroke-linejoin="round"/>
</svg>
