<svg width="54" height="64" viewBox="0 0 54 64" fill="none" xmlns="http://www.w3.org/2000/svg">
<path d="M0.479248 3.72387V59.9931C0.479072 60.6189 0.645857 61.2333 0.962395 61.7731C1.27893 62.3129 1.73376 62.7584 2.27995 63.0638C2.82614 63.3691 3.44391 63.5232 4.06952 63.5102C4.69514 63.4971 5.30593 63.3173 5.83889 62.9895L51.5577 34.8548C52.0697 34.5402 52.4926 34.0996 52.7859 33.575C53.0793 33.0505 53.2333 32.4595 53.2333 31.8585C53.2333 31.2575 53.0793 30.6665 52.7859 30.142C52.4926 29.6174 52.0697 29.1768 51.5577 28.8622L5.83889 0.727536C5.30593 0.399644 4.69514 0.21989 4.06952 0.206822C3.44391 0.193753 2.82614 0.347843 2.27995 0.653194C1.73376 0.958544 1.27893 1.40409 0.962395 1.94388C0.645857 2.48366 0.479072 3.09812 0.479248 3.72387Z" fill="#FF3897"/>
</svg>
