<svg width="328" height="67" viewBox="0 0 198 40" fill="none" xmlns="http://www.w3.org/2000/svg">
<path d="M74.213 15.1507C72.7196 14.5154 70.8734 14.2048 69.1518 14.2048C67.0116 14.2048 64.7868 14.9789 63.6062 15.9836V14.1742H58.3027V26.8448C58.3027 26.8448 58.3027 26.8495 58.3027 26.8518V37.4001H64.8409V25.2589C64.8409 22.4518 66.5177 19.7036 70.0385 19.7036C70.276 19.7036 70.523 19.7107 70.7605 19.7295C71.5672 17.9554 72.7455 16.4071 74.2177 15.1483L74.213 15.1507Z" fill="#0088FF"/>
<path d="M182.04 14.1765C175.968 14.1765 171.273 17.6471 169.996 22.8447C169.693 21.5106 169.216 20.3295 168.559 19.2918C168.404 19.0259 168.223 18.7742 168.035 18.5295C166.838 16.9695 165.321 15.8259 163.484 15.1106C161.652 14.3953 159.667 14.1624 157.527 14.4212C155.302 14.6847 153.359 15.4071 151.697 16.5742C150.034 17.7553 148.809 19.2518 148.021 21.0847C147.95 21.2447 147.887 21.4071 147.828 21.5695C146.965 16.4989 143.449 14.1765 138.813 14.1765C135.422 14.1765 132.489 15.5553 130.683 17.8659C129.095 15.3883 126.414 14.1765 123.268 14.1765C120.379 14.1765 116.292 15.4589 115.067 18.3295C113.345 15.5177 110.099 14.1765 105.638 14.1765C102.162 14.1765 98.6554 15.0659 96.193 16.7106C96.3412 16.8847 96.4823 17.0589 96.6187 17.24C97.1196 17.9036 97.5594 18.6142 97.9263 19.3695C98.0227 19.5553 98.1145 19.7553 98.1968 19.9483C98.2885 20.1483 98.3661 20.3483 98.4437 20.5483C98.5143 20.7436 98.5848 20.9295 98.6413 21.1224C98.6483 21.1365 98.6554 21.1553 98.6624 21.1695C100.288 20.0471 102.557 19.3695 104.756 19.3695C108.277 19.3695 109.951 21.0071 109.951 23.8142H104.756C102.543 23.8142 100.751 24.0965 99.3398 24.6259C98.5002 24.9365 97.797 25.3224 97.2231 25.7883C97.0749 25.9036 96.9268 26.033 96.7974 26.1624C96.8045 26.04 96.8045 25.9106 96.8045 25.7883C96.8045 18.9953 91.6139 14.1765 84.4431 14.1765C81.6515 14.1765 79.1444 14.9106 77.1312 16.2142C75.5579 17.2259 74.2879 18.5883 73.4059 20.2142C72.5287 21.84 72.0442 23.7224 72.0442 25.7883C72.0442 32.5812 77.2794 37.4 84.4431 37.4C89.2292 37.4 93.1285 35.2565 95.1935 31.8071C95.3793 32.8259 95.8049 33.76 96.4446 34.5553C97.844 36.3036 100.273 37.4 103.498 37.4C106.722 37.4 109.159 36.3083 110.372 34.2518V37.4306H116.489V25.5624C116.548 21.6659 118.58 19.833 121.424 19.833C124.267 19.833 125.699 21.5106 125.699 25.1553V37.4306H132.237V25.7412C132.237 21.7224 134.288 19.833 137.221 19.833C139.865 19.833 141.497 21.5106 141.497 25.1553V37.4306H148.035V30.2259C153.289 41.9318 167.292 36.6918 169.049 33.1671C168.138 31.6706 167.673 30.0636 167.238 28.1224C166.49 29.2 164.133 31.5789 159.938 31.6636C155.368 31.7577 153.903 28.393 153.806 28.1106L167.082 26.5295L169.648 26.2259C169.867 32.7859 175.032 37.4 182.04 37.4C189.049 37.4 194.402 32.5812 194.402 25.7883C194.402 18.9953 189.211 14.1765 182.04 14.1765ZM84.4502 32.033C80.7625 32.033 77.9309 29.6847 77.9309 25.7883C77.9309 21.8918 80.7625 19.5436 84.4502 19.5436C88.1379 19.5436 90.9178 21.8847 90.9178 25.7883C90.9178 29.6918 88.1332 32.033 84.4502 32.033ZM109.951 29.9365C109.199 31.9859 107.315 32.993 105.135 32.993C102.828 32.993 101.447 31.9036 101.447 30.2706C101.447 28.7624 102.409 27.6259 105.471 27.6259H109.951V29.9365ZM153.289 24.4189C153.308 23.7224 153.425 23.0777 153.658 22.4918C154.018 21.5812 154.585 20.8447 155.354 20.2706C156.128 19.6965 157.054 19.3436 158.138 19.2142C159.223 19.0847 160.196 19.2142 161.071 19.5883C161.944 19.9695 162.652 20.5483 163.214 21.3365C163.588 21.8518 163.851 22.4589 164.025 23.1365L153.289 24.4189ZM182.047 32.033C178.36 32.033 175.528 29.6847 175.528 25.7883C175.528 21.8918 178.36 19.5436 182.047 19.5436C185.735 19.5436 188.522 21.8847 188.522 25.7883C188.522 29.6918 185.73 32.033 182.047 32.033Z" fill="#0088FF"/>
<path d="M17.3587 20.2047C19.5883 25.04 25.5549 34.0471 27.8503 37.4542C23.0643 37.4612 16.9754 37.3506 13.5158 36.8518C8.81446 36.1836 4.9198 32.4189 3.86617 27.4918C3.17002 24.2259 3.86381 20.9906 5.54068 18.3953C7.22226 15.8 9.89396 13.8471 13.1513 13.1483C14.1978 12.9247 15.2491 12.84 16.2769 12.8777C15.9382 15.4189 16.3216 17.9436 17.3587 20.2071V20.2047Z" fill="#0088FF"/>
<path d="M39.0599 6.08472C36.6987 3.72236 33.6083 2.54354 30.5227 2.54354C27.4371 2.54354 24.3397 3.72236 21.9784 6.08472C20.0405 8.02354 18.8552 10.4777 18.4883 13.0047C18.4812 13.0612 18.4718 13.1153 18.4648 13.1718C18.2014 15.24 18.4812 17.3553 19.3679 19.273C22.002 24.9788 30.2852 37.1035 30.5086 37.4447C30.5157 37.4518 30.5227 37.4518 30.5227 37.4518V37.4447C30.5227 37.4447 30.5392 37.4212 30.5556 37.4047C30.5627 37.393 30.565 37.3835 30.5768 37.3694C30.5886 37.3483 30.6097 37.3177 30.6332 37.2824C30.6474 37.2659 30.6568 37.2494 30.6709 37.2306C30.6991 37.1835 30.7297 37.1388 30.7626 37.0894C31.1765 36.4847 32.0632 35.1718 33.1827 33.4777C35.9037 29.3388 39.9677 22.9577 41.6705 19.273C43.6625 14.9647 42.623 9.64942 39.0599 6.08472ZM30.5204 20.5224C27.3054 20.5224 24.7019 17.9153 24.7019 14.7012C24.7019 11.4871 27.3054 8.88001 30.5204 8.88001C33.7353 8.88001 36.3388 11.4871 36.3388 14.7012C36.3388 17.9153 33.733 20.5224 30.5204 20.5224Z" fill="#0088FF"/>
</svg>
