<svg width="26" height="25" viewBox="0 0 26 25" fill="none" xmlns="http://www.w3.org/2000/svg">
<path d="M12.1323 1.42705C12.4316 0.505741 13.735 0.50574 14.0344 1.42705L16.2452 8.23134C16.3791 8.64337 16.7631 8.92233 17.1963 8.92233H24.3508C25.3195 8.92233 25.7223 10.1619 24.9385 10.7313L19.1505 14.9366C18.8 15.1913 18.6533 15.6426 18.7872 16.0547L20.998 22.859C21.2974 23.7803 20.2429 24.5464 19.4592 23.977L13.6711 19.7717C13.3206 19.5171 12.846 19.5171 12.4955 19.7717L6.70747 23.977C5.92376 24.5464 4.86928 23.7803 5.16863 22.859L7.37948 16.0547C7.51335 15.6426 7.36669 15.1913 7.01621 14.9366L1.22813 10.7313C0.444416 10.1619 0.847191 8.92233 1.81591 8.92233H8.97037C9.4036 8.92233 9.78755 8.64337 9.92143 8.23134L12.1323 1.42705Z" fill="#FFCC00"/>
</svg>
