<svg width="22" height="22" viewBox="0 0 22 22" fill="none" xmlns="http://www.w3.org/2000/svg">
<path d="M2.84995 7.51072C2.70399 6.85325 2.7264 6.16957 2.91511 5.52306C3.10381 4.87656 3.4527 4.28817 3.92942 3.81244C4.40614 3.33672 4.99526 2.98907 5.64216 2.80172C6.28905 2.61437 6.97278 2.59339 7.62995 2.74072C7.99166 2.17502 8.48995 1.70948 9.0789 1.38701C9.66785 1.06453 10.3285 0.895508 10.9999 0.895508C11.6714 0.895508 12.332 1.06453 12.921 1.38701C13.5099 1.70948 14.0082 2.17502 14.3699 2.74072C15.0281 2.59275 15.713 2.61363 16.3609 2.80144C17.0089 2.98924 17.5988 3.33786 18.0758 3.81488C18.5528 4.29189 18.9014 4.8818 19.0892 5.52972C19.277 6.17765 19.2979 6.86255 19.1499 7.52072C19.7156 7.88243 20.1812 8.38073 20.5037 8.96967C20.8261 9.55862 20.9952 10.2193 20.9952 10.8907C20.9952 11.5622 20.8261 12.2228 20.5037 12.8118C20.1812 13.4007 19.7156 13.899 19.1499 14.2607C19.2973 14.9179 19.2763 15.6016 19.089 16.2485C18.9016 16.8954 18.554 17.4845 18.0782 17.9613C17.6025 18.438 17.0141 18.7869 16.3676 18.9756C15.7211 19.1643 15.0374 19.1867 14.3799 19.0407C14.0187 19.6086 13.52 20.0761 12.9301 20.4C12.3401 20.724 11.678 20.8938 11.0049 20.8938C10.3319 20.8938 9.66978 20.724 9.07982 20.4C8.48987 20.0761 7.99119 19.6086 7.62995 19.0407C6.97278 19.1881 6.28905 19.1671 5.64216 18.9797C4.99526 18.7924 4.40614 18.4447 3.92942 17.969C3.4527 17.4933 3.10381 16.9049 2.91511 16.2584C2.7264 15.6119 2.70399 14.9282 2.84995 14.2707C2.27991 13.91 1.81036 13.4109 1.485 12.8199C1.15963 12.229 0.989014 11.5653 0.989014 10.8907C0.989014 10.2161 1.15963 9.55247 1.485 8.96151C1.81036 8.37055 2.27991 7.87148 2.84995 7.51072Z" stroke="black" stroke-linecap="round" stroke-linejoin="round"/>
<path d="M8 10.8906L10 12.8906L14 8.89062" stroke="black" stroke-linecap="round" stroke-linejoin="round"/>
</svg>
